<?xml version="1.0" encoding="utf-8"?>
<!-- Generator: Adobe Illustrator 27.1.1, SVG Export Plug-In . SVG Version: 6.00 Build 0)  -->
<svg version="1.1" id="Capa_1" xmlns="http://www.w3.org/2000/svg" xmlns:xlink="http://www.w3.org/1999/xlink" x="0px" y="0px"
	 viewBox="0 0 600 600" style="enable-background:new 0 0 600 600;" xml:space="preserve">
<style type="text/css">
	.st0{fill:none;}
	.st1{fill:none;stroke:#000000;stroke-width:9;stroke-miterlimit:10;}
</style>
<g>
	<g>
		<path d="M204.5,424.5c31.6,19.81,69.94,27.05,106.67,22.95c14.65-0.62,29.25-4.46,42.69-10.19
			c40.42-17.41,71.99-55.78,79.78-99.29c1.2-5.93,1.51-12.79,1.67-18.86c0.42-8.63,0.41-16.99-0.76-25.49
			c-6.93-59.79-55.09-109.66-114.63-118.56c-59.61-9.8-120.44,22.53-145.66,77.43c-1.39,2.71-2.53,5.9-3.72,8.71
			c-1.42,3.92-2.58,8.07-3.83,12.03c-9,25.05-11.08,53.4-5.26,79.77c1.84,8.73,4.53,17.27,7.87,25.58
			c-21.05-31.78-29.26-74.77-19.09-113.72c5.27-15.8,12.54-31,22.31-44.53c45.48-64.48,135.71-83.95,203.68-43.85
			c50.11,28.83,80.74,85.48,76.88,143.22c-0.13,6.91-0.65,14.55-1.92,21.31c-10.96,61.54-62.77,112.59-124.46,122.71
			c-7.08,1.03-14.22,2.45-21.39,2.12C268.36,464.1,231.47,449.93,204.5,424.5L204.5,424.5z"/>
	</g>
	<path d="M440,376l-32,31c-10.51-0.74-41.12,1.06-50.72-1.64c-15.5-4.37-23.3-17.64-28.61-31.8c-7.4-19.71-13.93-39.75-20.93-59.61
		c-1.03-2.95-2.55-5.72-4.44-9.87c-8.83,18.67-17.26,36.54-25.73,54.38c-4.85,10.21-9.7,20.4-14.57,30.59
		c-1.56,3.27-3.13,6.53-4.69,9.8c-2.42,5.06-6.31,7.42-12.07,7.2c-7.28-0.27-14.59-0.06-23.36-0.06c3.12-7.41,5.58-14.18,8.74-20.6
		c4.19-8.51,8.44-17,12.7-25.48c6.42-12.77,12.86-25.53,19.15-38.36c9.51-19.38,18.91-38.82,27.79-58.49
		c1.34-2.98-0.37-7.35-0.67-11.08c-0.02-0.19-0.16-0.37-0.22-0.57c-6.46-20.08-6.94-19.98-27.35-22.75v-32.63
		c26.88-4.24,44.64,4.37,53.03,30.66c10.92,34.19,20.12,68.91,30.64,103.23c3.65,11.9,8.5,23.51,13.77,34.8
		c3.69,7.9,11.16,9.69,19.88,10.81C384,376,437.15,376,440,376z"/>
</g>
</svg>
